<svg id="Layer_1" data-name="Layer 1" xmlns="http://www.w3.org/2000/svg" viewBox="0 0 102.42 191.01"><defs><style>.cls-1{fill:lime;}.cls-2{fill:#fff;}</style></defs><path d="M442.72,215.5c7.1-31.37,94.35-31.4,101.48,0,8.84,38.9-110,105.14-101.13,144,7.12,31.31,94,31.28,101.13,0C553,320.64,433.9,254.4,442.72,215.5Z" transform="translate(-442.25 -191.96)"/><path class="cls-1" d="M493.28,288h0Z" transform="translate(-442.25 -191.96)"/><path class="cls-2" d="M468.23,247.28c3.53-17.71,46.58-17.71,50.1,0,4.38,22-54.47,59.46-50.1,81.44,3.53,17.71,46.58,17.71,50.1,0C522.71,306.74,463.85,269.27,468.23,247.28Z" transform="translate(-442.25 -191.96)"/></svg>